# xmcd CD database file
#
# Track frame offsets:
#	150
#	15957
#	32040
#	52122
#	73483
#	87686
#	100622
#	121368
#	138180
#	153780
#	168032
#	180985
#	199633
#	217286
#	233636
#
# Disc length: 3356 seconds
#
# Revision: 0
# Processed by: cddbd v1.5.2PL0 Copyright (c) Steve Scherf et al.
# Submitted via: CDex 1.70beta2
#
DISCID=c50d1a0f
DTITLE=Rodrigo Haddad - Lo mejor de Rodrigo Haddad
DYEAR=2010
DGENRE=Country
TTITLE0=Born to sing
TTITLE1=You're gonna miss me
TTITLE2=Someone like you
TTITLE3=From Brazil to Tenesse
TTITLE4=Santa Fe
TTITLE5=Nashville, TN
TTITLE6=I'm on your side
TTITLE7=Single man
TTITLE8=Someday
TTITLE9=Ten Years
TTITLE10=Like a Honky Tonk
TTITLE11=Zé cowboy
TTITLE12=San Pedro
TTITLE13=Goodbye
TTITLE14=Singin' a country song
EXTD=YEAR: 2010
EXTT0=
EXTT1=
EXTT2=
EXTT3=
EXTT4=
EXTT5=
EXTT6=
EXTT7=
EXTT8=
EXTT9=
EXTT10=
EXTT11=
EXTT12=
EXTT13=
EXTT14=
PLAYORDER=
